<?xml version="1.0" standalone="no"?>
<!DOCTYPE svg PUBLIC "-//W3C//DTD SVG 20010904//EN"
 "http://www.w3.org/TR/2001/REC-SVG-20010904/DTD/svg10.dtd">
<svg version="1.0" xmlns="http://www.w3.org/2000/svg"
 width="512.000000pt" height="512.000000pt" viewBox="0 0 512.000000 512.000000"
 preserveAspectRatio="xMidYMid meet">

<g transform="translate(0.000000,512.000000) scale(0.100000,-0.100000)"
fill="#fff" stroke="none">
<path d="M4380 3594 c-14 -2 -50 -9 -80 -15 -30 -6 -797 -306 -1703 -666
l-1648 -655 -444 191 c-244 105 -452 191 -462 191 -23 0 -43 -18 -43 -39 0 -9
141 -158 314 -331 l314 -315 5 -57 c4 -44 2 -60 -10 -70 -9 -7 -22 -27 -29
-44 -29 -70 26 -144 106 -144 29 0 44 -8 75 -41 22 -22 57 -49 77 -60 82 -42
64 -48 1020 327 486 191 894 351 908 356 24 9 24 8 -6 -24 -151 -163 -375
-409 -397 -436 -40 -50 -36 -83 18 -137 46 -47 77 -56 117 -34 12 6 352 261
756 567 l735 555 316 124 c586 229 782 351 798 495 14 124 -109 209 -361 253
-80 14 -306 19 -376 9z"/>
<path d="M2610 3219 c-399 -43 -730 -78 -737 -79 -7 0 -24 -10 -39 -23 -23
-20 -27 -31 -28 -85 -1 -53 2 -65 24 -87 25 -25 33 -26 262 -42 l236 -17 498
198 c478 190 541 216 519 215 -5 -1 -336 -36 -735 -80z"/>
</g>
</svg>
