<svg width="34" height="38" viewBox="0 0 34 38" fill="none" xmlns="http://www.w3.org/2000/svg">
<path d="M33.7992 6.4001C33.7992 9.8798 28.1586 12.7001 21.1992 12.7001C14.2398 12.7001 8.59922 9.8798 8.59922 6.4001C8.59922 2.9204 14.2398 0.100098 21.1992 0.100098C28.1586 0.100098 33.7992 2.9204 33.7992 6.4001ZM33.7992 10.8521C32.9949 11.6123 32.0352 12.2402 31.0482 12.7337C28.419 14.0483 24.933 14.8001 21.1992 14.8001C19.8909 14.8001 18.6162 14.7077 17.3961 14.5313C19.3596 15.6401 21.0165 17.3474 21.1845 19.6595L21.2055 19.6427L21.1992 24.3614V32.6501C21.1992 33.0155 21.1614 33.3641 21.0921 33.7001H21.1992C28.1586 33.7001 33.7992 30.8798 33.7992 27.4001V10.8521ZM11.3502 12.7337L11.4552 12.7862C10.506 12.6959 9.5513 12.677 8.59922 12.7295V10.8521C9.40352 11.6123 10.3632 12.2402 11.3502 12.7337ZM14.8992 15.6821C14.1356 15.4018 13.3485 15.1903 12.5472 15.05C11.5905 14.8816 10.6207 14.798 9.64922 14.8001C4.43072 14.8001 0.199219 17.1521 0.199219 20.0501C0.199219 22.9481 4.43072 25.3001 9.64922 25.3001C14.8677 25.3001 19.0992 22.9481 19.0992 20.0501C19.0992 18.2294 17.4318 16.6271 14.8992 15.6821ZM17.352 25.5941C15.273 26.7491 12.5472 27.398 9.64922 27.398C6.75122 27.398 4.02332 26.7491 1.94642 25.5962C1.31979 25.2519 0.733728 24.8384 0.199219 24.3635V32.648C0.199219 35.5481 4.43072 37.9001 9.64922 37.9001C14.8677 37.9001 19.0992 35.5481 19.0992 32.6501L19.1013 24.3635C18.5665 24.8402 17.9797 25.2551 17.352 25.6004V25.5941Z" fill="#185CFF"/>
</svg>
