<svg width="32" height="34" viewBox="0 0 32 34" fill="none" xmlns="http://www.w3.org/2000/svg">
<path d="M23.3991 1.7752C23.3991 1.35748 23.565 0.956872 23.8604 0.661502C24.1557 0.366132 24.5563 0.200195 24.9741 0.200195H30.2241C30.6418 0.200195 31.0424 0.366132 31.3377 0.661502C31.6331 0.956872 31.7991 1.35748 31.7991 1.7752V7.0252C31.7991 7.44291 31.6331 7.84352 31.3377 8.13889C31.0424 8.43426 30.6418 8.60019 30.2241 8.60019C29.8063 8.60019 29.4057 8.43426 29.1104 8.13889C28.815 7.84352 28.6491 7.44291 28.6491 7.0252V5.57619L19.2621 14.9632C18.9667 15.2581 18.5664 15.4238 18.1491 15.4238C17.7317 15.4238 17.3314 15.2581 17.0361 14.9632L11.8491 9.77619L2.98705 18.6382C2.84286 18.7929 2.66898 18.9171 2.47578 19.0031C2.28258 19.0892 2.07403 19.1355 1.86255 19.1392C1.65107 19.143 1.44101 19.1041 1.2449 19.0249C1.04878 18.9456 0.870632 18.8277 0.721072 18.6782C0.571513 18.5286 0.453609 18.3505 0.374395 18.1544C0.295181 17.9582 0.256279 17.7482 0.260011 17.5367C0.263742 17.3252 0.31003 17.1167 0.396113 16.9235C0.482196 16.7303 0.606311 16.5564 0.761053 16.4122L10.7361 6.43719C11.0314 6.14225 11.4317 5.97658 11.8491 5.97658C12.2664 5.97658 12.6667 6.14225 12.9621 6.43719L18.1491 11.6242L26.423 3.3502H24.9741C24.5563 3.3502 24.1557 3.18426 23.8604 2.88889C23.565 2.59352 23.3991 2.19291 23.3991 1.7752ZM1.87405 25.4002C2.29177 25.4002 2.69238 25.5661 2.98775 25.8615C3.28312 26.1569 3.44905 26.5575 3.44905 26.9752V32.2252C3.44905 32.6429 3.28312 33.0435 2.98775 33.3389C2.69238 33.6343 2.29177 33.8002 1.87405 33.8002C1.45634 33.8002 1.05573 33.6343 0.76036 33.3389C0.46499 33.0435 0.299053 32.6429 0.299053 32.2252V26.9752C0.299053 26.5575 0.46499 26.1569 0.76036 25.8615C1.05573 25.5661 1.45634 25.4002 1.87405 25.4002ZM11.8491 20.6752C11.8491 20.2575 11.6831 19.8569 11.3877 19.5615C11.0924 19.2661 10.6918 19.1002 10.2741 19.1002C9.85634 19.1002 9.45573 19.2661 9.16036 19.5615C8.86499 19.8569 8.69905 20.2575 8.69905 20.6752V32.2252C8.69905 32.6429 8.86499 33.0435 9.16036 33.3389C9.45573 33.6343 9.85634 33.8002 10.2741 33.8002C10.6918 33.8002 11.0924 33.6343 11.3877 33.3389C11.6831 33.0435 11.8491 32.6429 11.8491 32.2252V20.6752ZM18.6741 23.3002C19.0918 23.3002 19.4924 23.4661 19.7877 23.7615C20.0831 24.0569 20.2491 24.4575 20.2491 24.8752V32.2252C20.2491 32.6429 20.0831 33.0435 19.7877 33.3389C19.4924 33.6343 19.0918 33.8002 18.6741 33.8002C18.2563 33.8002 17.8557 33.6343 17.5604 33.3389C17.265 33.0435 17.0991 32.6429 17.0991 32.2252V24.8752C17.0991 24.4575 17.265 24.0569 17.5604 23.7615C17.8557 23.4661 18.2563 23.3002 18.6741 23.3002ZM28.6491 16.4752C28.6491 16.0575 28.4831 15.6569 28.1877 15.3615C27.8924 15.0661 27.4918 14.9002 27.0741 14.9002C26.6563 14.9002 26.2557 15.0661 25.9604 15.3615C25.665 15.6569 25.4991 16.0575 25.4991 16.4752V32.2252C25.4991 32.6429 25.665 33.0435 25.9604 33.3389C26.2557 33.6343 26.6563 33.8002 27.0741 33.8002C27.4918 33.8002 27.8924 33.6343 28.1877 33.3389C28.4831 33.0435 28.6491 32.6429 28.6491 32.2252V16.4752Z" fill="#185CFF"/>
</svg>
